<svg width="127" height="48" viewBox="0 0 127 48" fill="none" xmlns="http://www.w3.org/2000/svg">
<path d="M11.146 28.9876C10.2097 28.4963 9.5176 27.8004 8.98835 26.9406C8.45911 26.0809 8.21484 25.0984 8.21484 23.9931C8.21484 22.8878 8.45911 21.9052 8.98835 21.0455C9.5176 20.1858 10.2097 19.4899 11.146 18.9986C12.0824 18.5074 13.1002 18.2617 14.2401 18.2617C15.38 18.2617 16.4385 18.5074 17.3341 18.9986C18.2298 19.4899 18.9626 20.1858 19.4918 21.0455C20.0211 21.9052 20.2653 22.8878 20.2653 23.9931C20.2653 25.0984 19.9803 26.0809 19.4918 26.9406C18.9626 27.8004 18.2298 28.4963 17.3341 28.9876C16.4385 29.4788 15.38 29.7245 14.2401 29.7245C13.1002 29.7245 12.0824 29.4788 11.146 28.9876ZM16.0314 27.1044C16.5606 26.8178 16.9677 26.3675 17.2527 25.8353C17.5377 25.3031 17.7005 24.689 17.7005 23.9931C17.7005 23.2971 17.5377 22.6831 17.2527 22.1509C16.9677 21.6187 16.5199 21.2093 16.0314 20.8818C15.5428 20.5543 14.9322 20.4315 14.2808 20.4315C13.6294 20.4315 13.0595 20.5952 12.5302 20.8818C12.001 21.1683 11.5939 21.6187 11.3089 22.1509C11.0239 22.6831 10.8611 23.2971 10.8611 23.9931C10.8611 24.689 11.0239 25.3031 11.3089 25.8353C11.5939 26.3675 12.0417 26.7769 12.5302 27.1044C13.0595 27.391 13.6294 27.5547 14.2808 27.5547C14.9322 27.5547 15.5021 27.391 16.0314 27.1044Z" fill="black"/>
<path d="M33.66 18.917C34.3928 19.2445 34.9221 19.6949 35.3292 20.3089C35.7363 20.923 35.8991 21.619 35.8991 22.4377C35.8991 23.2565 35.6956 23.9525 35.3292 24.5665C34.9221 25.1806 34.3928 25.6309 33.66 25.9584C32.9272 26.2859 32.0723 26.4497 31.0952 26.4497H28.8968V29.5201H26.332V18.4258H31.0952C32.0723 18.4258 32.9272 18.6305 33.66 18.917ZM32.7237 23.8706C33.1308 23.5431 33.3343 23.0518 33.3343 22.4377C33.3343 21.8237 33.1308 21.3324 32.7237 21.0049C32.3166 20.6774 31.7466 20.5136 30.9731 20.5136H28.8968V24.3618H30.9731C31.7466 24.4028 32.3166 24.239 32.7237 23.8706Z" fill="black"/>
<path d="M43.7958 20.5546H40.2539V18.4258H49.8617V20.5136H46.3199V29.5201H43.7551L43.7958 20.5546Z" fill="black"/>
<path d="M55.3584 18.4258H57.9232V29.5201H55.3584V18.4258Z" fill="black"/>
<path d="M81.2509 18.4258L77.6277 29.5201H74.9L72.4573 21.9874L69.9333 29.5201H67.2056L63.623 18.4258H66.2693L68.7526 26.245L71.3581 18.4258H73.7194L76.2435 26.2859L78.8083 18.4258H81.2509Z" fill="black"/>
<path d="M86.7871 18.4258H89.3519V29.5201H86.7871V18.4258Z" fill="black"/>
<path d="M97.169 29.3971C96.3548 29.1515 95.7034 28.8649 95.2148 28.4555L96.0698 26.5314C96.5583 26.8589 97.0876 27.1455 97.7389 27.3911C98.3903 27.5958 99.0417 27.7186 99.6931 27.7186C100.426 27.7186 100.955 27.5958 101.281 27.3911C101.647 27.1864 101.81 26.8999 101.81 26.5314C101.81 26.2449 101.729 26.0402 101.484 25.8764C101.281 25.7127 101.037 25.5489 100.711 25.467C100.385 25.3442 99.9373 25.2623 99.4081 25.1395C98.5532 24.9348 97.8611 24.7301 97.3318 24.5254C96.8026 24.3207 96.3548 23.9932 95.9476 23.5429C95.5405 23.0926 95.3777 22.5195 95.3777 21.7826C95.3777 21.1276 95.5405 20.5544 95.9069 20.0222C96.2733 19.49 96.7619 19.0806 97.4947 18.7941C98.2275 18.5075 99.0417 18.3438 100.059 18.3438C100.752 18.3438 101.444 18.4256 102.136 18.5894C102.787 18.7531 103.398 18.9988 103.886 19.3263L103.113 21.2913C102.095 20.7182 101.077 20.4316 100.059 20.4316C99.3267 20.4316 98.7974 20.5544 98.4717 20.7591C98.146 21.0047 97.9425 21.2913 97.9425 21.6598C97.9425 22.0282 98.146 22.3148 98.5124 22.5195C98.8788 22.7242 99.4895 22.8879 100.304 23.0517C101.159 23.2564 101.851 23.461 102.38 23.6657C102.909 23.8704 103.357 24.1979 103.764 24.6073C104.131 25.0576 104.334 25.6308 104.334 26.3677C104.334 27.0227 104.171 27.5958 103.805 28.0871C103.438 28.6193 102.909 29.0287 102.217 29.3152C101.525 29.6018 100.67 29.7655 99.6524 29.7655C98.8381 29.7246 97.9832 29.6018 97.169 29.3971Z" fill="black"/>
<path d="M118.786 27.4732V29.5201H110.236V18.4258H118.582V20.4727H112.76V22.929H117.89V24.935H112.76V27.5141L118.786 27.4732Z" fill="black"/>
<path d="M114.226 32.2235H114.755L114.511 31.6094L114.226 32.2235Z" fill="black"/>
<path d="M110.236 30.4648V33.699H118.786V30.4648H110.236ZM112.394 32.8393C112.353 32.8802 112.313 32.9211 112.231 32.9211C112.15 32.9211 112.109 32.9211 112.068 32.8393C112.028 32.7574 111.987 32.7574 111.987 32.6755C111.987 32.5936 111.987 32.5527 112.068 32.5118C112.109 32.4708 112.15 32.4299 112.231 32.4299C112.313 32.4299 112.353 32.4299 112.394 32.5118C112.435 32.5527 112.475 32.5936 112.475 32.6755C112.475 32.7165 112.435 32.7574 112.394 32.8393ZM115.04 32.8802L114.918 32.5118H114.145L113.982 32.8802H113.575L114.307 31.2427H114.674L115.407 32.8802H115.04ZM116.954 32.8802H116.587V31.2427H116.954V32.8802Z" fill="black"/>
<path d="M16.8865 15.4834C20.1434 8.15547 27.4307 3.07912 35.8986 3.07912C44.3665 3.07912 51.6538 8.19641 54.9107 15.4834H57.679C54.2593 6.72263 45.7914 0.5 35.8986 0.5C26.0058 0.5 17.4972 6.72263 14.1182 15.4834H16.8865Z" fill="black"/>
<path d="M54.9107 32.5117C51.6538 39.8397 44.3665 44.916 35.8986 44.916C27.4307 44.916 20.1434 39.7987 16.8865 32.5117H14.1182C17.5379 41.2725 26.0058 47.4952 35.8986 47.4952C45.7914 47.4952 54.3 41.2725 57.679 32.5117H54.9107Z" fill="black"/>
</svg>
