<svg width="127" height="48" viewBox="0 0 127 48" fill="none" xmlns="http://www.w3.org/2000/svg">
<path d="M11.1456 28.9876C10.2092 28.4963 9.51711 27.8004 8.98787 26.9406C8.45862 26.0809 8.21436 25.0984 8.21436 23.9931C8.21436 22.8878 8.45862 21.9052 8.98787 21.0455C9.51711 20.1858 10.2092 19.4899 11.1456 18.9986C12.0819 18.5074 13.0997 18.2617 14.2396 18.2617C15.3795 18.2617 16.438 18.5074 17.3336 18.9986C18.2293 19.4899 18.9621 20.1858 19.4913 21.0455C20.0206 21.9052 20.2648 22.8878 20.2648 23.9931C20.2648 25.0984 19.9799 26.0809 19.4913 26.9406C18.9621 27.8004 18.2293 28.4963 17.3336 28.9876C16.438 29.4788 15.3795 29.7245 14.2396 29.7245C13.0997 29.7245 12.0819 29.4788 11.1456 28.9876ZM16.0309 27.1044C16.5601 26.8178 16.9672 26.3675 17.2522 25.8353C17.5372 25.3031 17.7 24.689 17.7 23.9931C17.7 23.2971 17.5372 22.6831 17.2522 22.1509C16.9672 21.6187 16.5194 21.2093 16.0309 20.8818C15.5423 20.5543 14.9317 20.4315 14.2803 20.4315C13.6289 20.4315 13.059 20.5952 12.5297 20.8818C12.0005 21.1683 11.5934 21.6187 11.3084 22.1509C11.0234 22.6831 10.8606 23.2971 10.8606 23.9931C10.8606 24.689 11.0234 25.3031 11.3084 25.8353C11.5934 26.3675 12.0412 26.7769 12.5297 27.1044C13.059 27.391 13.6289 27.5547 14.2803 27.5547C14.9317 27.5547 15.5016 27.391 16.0309 27.1044Z" fill="#9CA3AF"/>
<path d="M33.659 18.917C34.3918 19.2445 34.9211 19.6949 35.3282 20.3089C35.7353 20.923 35.8982 21.619 35.8982 22.4377C35.8982 23.2565 35.6946 23.9525 35.3282 24.5665C34.9211 25.1806 34.3918 25.6309 33.659 25.9584C32.9262 26.2859 32.0713 26.4497 31.0943 26.4497H28.8959V29.5201H26.3311V18.4258H31.0943C32.0713 18.4258 32.9262 18.6305 33.659 18.917ZM32.7227 23.8706C33.1298 23.5431 33.3334 23.0518 33.3334 22.4377C33.3334 21.8237 33.1298 21.3324 32.7227 21.0049C32.3156 20.6774 31.7456 20.5136 30.9721 20.5136H28.8959V24.3618H30.9721C31.7456 24.4028 32.3156 24.239 32.7227 23.8706Z" fill="#9CA3AF"/>
<path d="M43.7958 20.5546H40.2539V18.4258H49.8617V20.5136H46.3199V29.5201H43.7551L43.7958 20.5546Z" fill="#9CA3AF"/>
<path d="M55.3579 18.4258H57.9227V29.5201H55.3579V18.4258Z" fill="#9CA3AF"/>
<path d="M81.25 18.4258L77.6267 29.5201H74.899L72.4564 21.9874L69.9323 29.5201H67.2046L63.6221 18.4258H66.2683L68.7517 26.245L71.3572 18.4258H73.7184L76.2425 26.2859L78.8073 18.4258H81.25Z" fill="#9CA3AF"/>
<path d="M86.7866 18.4258H89.3514V29.5201H86.7866V18.4258Z" fill="#9CA3AF"/>
<path d="M97.168 29.3971C96.3538 29.1515 95.7024 28.8649 95.2139 28.4555L96.0688 26.5314C96.5573 26.8589 97.0866 27.1455 97.738 27.3911C98.3893 27.5958 99.0407 27.7186 99.6921 27.7186C100.425 27.7186 100.954 27.5958 101.28 27.3911C101.646 27.1864 101.809 26.8999 101.809 26.5314C101.809 26.2449 101.728 26.0402 101.483 25.8764C101.28 25.7127 101.036 25.5489 100.71 25.467C100.384 25.3442 99.9364 25.2623 99.4071 25.1395C98.5522 24.9348 97.8601 24.7301 97.3308 24.5254C96.8016 24.3207 96.3538 23.9932 95.9467 23.5429C95.5396 23.0926 95.3767 22.5195 95.3767 21.7826C95.3767 21.1276 95.5396 20.5544 95.906 20.0222C96.2724 19.49 96.7609 19.0806 97.4937 18.7941C98.2265 18.5075 99.0407 18.3438 100.058 18.3438C100.751 18.3438 101.443 18.4256 102.135 18.5894C102.786 18.7531 103.397 18.9988 103.885 19.3263L103.112 21.2913C102.094 20.7182 101.076 20.4316 100.058 20.4316C99.3257 20.4316 98.7964 20.5544 98.4708 20.7591C98.1451 21.0047 97.9415 21.2913 97.9415 21.6598C97.9415 22.0282 98.1451 22.3148 98.5115 22.5195C98.8779 22.7242 99.4885 22.8879 100.303 23.0517C101.158 23.2564 101.85 23.461 102.379 23.6657C102.908 23.8704 103.356 24.1979 103.763 24.6073C104.13 25.0576 104.333 25.6308 104.333 26.3677C104.333 27.0227 104.17 27.5958 103.804 28.0871C103.438 28.6193 102.908 29.0287 102.216 29.3152C101.524 29.6018 100.669 29.7655 99.6514 29.7655C98.8372 29.7246 97.9822 29.6018 97.168 29.3971Z" fill="#9CA3AF"/>
<path d="M118.786 27.4732V29.5201H110.236V18.4258H118.582V20.4727H112.76V22.929H117.89V24.935H112.76V27.5141L118.786 27.4732Z" fill="#9CA3AF"/>
<path d="M114.226 32.2235H114.755L114.511 31.6094L114.226 32.2235Z" fill="#9CA3AF"/>
<path d="M110.236 30.4648V33.699H118.786V30.4648H110.236ZM112.394 32.8393C112.353 32.8802 112.313 32.9211 112.231 32.9211C112.15 32.9211 112.109 32.9211 112.068 32.8393C112.028 32.7574 111.987 32.7574 111.987 32.6755C111.987 32.5936 111.987 32.5527 112.068 32.5118C112.109 32.4708 112.15 32.4299 112.231 32.4299C112.313 32.4299 112.353 32.4299 112.394 32.5118C112.435 32.5527 112.475 32.5936 112.475 32.6755C112.475 32.7165 112.435 32.7574 112.394 32.8393ZM115.04 32.8802L114.918 32.5118H114.145L113.982 32.8802H113.575L114.307 31.2427H114.674L115.407 32.8802H115.04ZM116.954 32.8802H116.587V31.2427H116.954V32.8802Z" fill="#9CA3AF"/>
<path d="M16.886 15.4834C20.1429 8.15547 27.4302 3.07912 35.8981 3.07912C44.366 3.07912 51.6533 8.19641 54.9102 15.4834H57.6785C54.2588 6.72263 45.7909 0.5 35.8981 0.5C26.0053 0.5 17.4967 6.72263 14.1177 15.4834H16.886Z" fill="#9CA3AF"/>
<path d="M54.9102 32.5117C51.6533 39.8397 44.366 44.916 35.8981 44.916C27.4302 44.916 20.1429 39.7987 16.886 32.5117H14.1177C17.5374 41.2725 26.0053 47.4952 35.8981 47.4952C45.7909 47.4952 54.2995 41.2725 57.6785 32.5117H54.9102Z" fill="#9CA3AF"/>
</svg>
