<svg width="127" height="48" viewBox="0 0 127 48" fill="none" xmlns="http://www.w3.org/2000/svg">
<g clip-path="url(#clip0_5042_63699)">
<path d="M21.3027 13V34.3027H14.2021V20.1006H0V13H21.3027Z" fill="#9CA3AF"/>
<path d="M9.46811 24.832H0V34.301H9.46811V24.832Z" fill="#9CA3AF"/>
<path d="M41.732 20.3881C41.1497 19.418 39.5479 18.4952 37.7035 18.4952C35.325 18.4952 34.185 19.4901 34.185 20.7523C34.185 22.2326 35.932 22.6452 37.9708 22.888C41.5139 23.3251 44.8159 24.2469 44.8159 28.2992C44.8159 32.0859 41.4673 33.7113 37.6816 33.7113C34.2133 33.7113 31.5411 32.6435 30.2798 29.5377L32.9493 28.154C33.7005 30.0223 35.6673 30.8501 37.7299 30.8501C39.7441 30.8501 41.637 30.1465 41.637 28.3019C41.637 26.7011 39.9623 26.0458 37.7053 25.803C34.2371 25.3905 31.0318 24.4678 31.0318 20.6583C31.0318 17.1637 34.4781 15.7298 37.6085 15.707C40.2553 15.707 42.9933 16.46 44.282 19.0839L41.732 20.3881Z" fill="#9CA3AF"/>
<path d="M57.0109 31.7438C55.6273 33.1027 54.1716 33.6367 52.4001 33.6367C48.932 33.6367 46.0415 31.5503 46.0415 27.3027C46.0415 23.0551 48.9292 20.9688 52.4001 20.9688C54.0986 20.9688 55.412 21.4543 56.7198 22.7403L54.8507 24.7061C54.1927 24.1073 53.3381 23.7705 52.4485 23.7597C50.4589 23.7597 49.0022 25.22 49.0022 27.3027C49.0022 29.5844 50.5538 30.7973 52.4001 30.7973C53.3466 30.7973 54.293 30.5308 55.0204 29.8025L57.0109 31.7438Z" fill="#9CA3AF"/>
<path d="M67.2372 21.3109H70.0765V33.2742H67.2865L67.1405 31.5273C66.4614 32.9347 64.5923 33.6146 63.258 33.6383C59.7149 33.663 57.0938 31.479 57.0938 27.2807C57.0938 23.1545 59.8364 20.9951 63.331 21.0197C64.9327 21.0197 66.4614 21.7718 67.1405 22.961L67.2372 21.3109ZM60.0536 27.2807C60.0536 29.5624 61.6306 30.9204 63.5966 30.9204C68.2567 30.9204 68.2567 23.6647 63.5966 23.6647C61.6279 23.6647 60.0536 24.999 60.0536 27.2807Z" fill="#9CA3AF"/>
<path d="M75.2701 16.3125V33.2755H72.334V16.3125H75.2701Z" fill="#9CA3AF"/>
<path d="M80.049 28.3472C80.2425 29.8275 81.5298 30.8953 83.6161 30.8953C84.7112 30.8953 86.14 30.4828 86.8196 29.7791L88.7121 31.6474C87.451 32.958 85.3876 33.5886 83.567 33.5886C79.4421 33.5886 76.9907 31.0404 76.9907 27.2063C76.9907 23.5666 79.4658 20.9453 83.3495 20.9453C87.3528 20.9453 89.853 23.4205 89.3917 28.3472H80.049ZM86.553 25.8957C86.3583 24.3442 85.1447 23.5666 83.4493 23.5666C81.848 23.5666 80.5374 24.3423 80.1011 25.8957H86.553Z" fill="#9CA3AF"/>
<path d="M100.008 33.2749V27.0177C100.008 25.1978 99.0137 23.8142 97.1212 23.8142C95.2958 23.8142 94.0625 25.3438 94.0625 27.1636V33.2785H91.1265V21.287H93.773L93.9676 22.9133C95.1805 21.7269 96.3942 21.1172 97.8982 21.1172C100.714 21.1172 102.971 23.2282 102.971 26.9903V33.2749H100.008Z" fill="#9CA3AF"/>
<path d="M107.981 21.3086V27.5695C107.981 29.3893 108.976 30.773 110.868 30.773C112.688 30.773 113.926 29.2434 113.926 27.4235V21.3086H116.863V33.2965H114.217L114.024 31.6692C112.786 32.8831 111.645 33.4654 109.97 33.4654C107.107 33.4654 105.02 31.3059 105.02 27.5923V21.3086H107.981Z" fill="#9CA3AF"/>
<path d="M123.219 17.9375V21.3344H126.52V23.8827H123.195V29.0521C123.195 30.192 123.825 30.7506 124.746 30.7506C125.245 30.7361 125.734 30.6114 126.178 30.3855L127 32.9099C126.222 33.2338 125.391 33.4067 124.548 33.4192C121.957 33.5168 120.259 32.0364 120.259 29.0521V23.8827H118.027V21.3344H120.259V18.2551L123.219 17.9375Z" fill="#9CA3AF"/>
</g>
<defs>
<clipPath id="clip0_5042_63699">
<rect width="127" height="48" fill="white"/>
</clipPath>
</defs>
</svg>
