<svg width="127" height="48" viewBox="0 0 127 48" fill="none" xmlns="http://www.w3.org/2000/svg">
<g clip-path="url(#clip0_5055_67261)">
<path d="M21.3027 13V34.3027H14.2021V20.1006H0V13H21.3027Z" fill="white"/>
<path d="M9.46811 24.832H0V34.301H9.46811V24.832Z" fill="white"/>
<path d="M41.7315 20.3881C41.1492 19.418 39.5475 18.4952 37.703 18.4952C35.3245 18.4952 34.1846 19.4901 34.1846 20.7523C34.1846 22.2326 35.9315 22.6452 37.9703 22.888C41.5134 23.3251 44.8154 24.2469 44.8154 28.2992C44.8154 32.0859 41.4668 33.7113 37.6811 33.7113C34.2129 33.7113 31.5406 32.6435 30.2793 29.5377L32.9488 28.154C33.7 30.0223 35.6668 30.8501 37.7294 30.8501C39.7437 30.8501 41.6365 30.1465 41.6365 28.3019C41.6365 26.7011 39.9619 26.0458 37.7048 25.803C34.2367 25.3905 31.0313 24.4678 31.0313 20.6583C31.0313 17.1637 34.4776 15.7298 37.608 15.707C40.2548 15.707 42.9928 16.46 44.2815 19.0839L41.7315 20.3881Z" fill="white"/>
<path d="M57.0105 31.7438C55.6268 33.1027 54.1712 33.6367 52.3996 33.6367C48.9315 33.6367 46.041 31.5503 46.041 27.3027C46.041 23.0551 48.9287 20.9688 52.3996 20.9688C54.0981 20.9688 55.4115 21.4543 56.7193 22.7403L54.8502 24.7061C54.1923 24.1073 53.3376 23.7705 52.448 23.7597C50.4584 23.7597 49.0018 25.22 49.0018 27.3027C49.0018 29.5844 50.5533 30.7973 52.3996 30.7973C53.3461 30.7973 54.2925 30.5308 55.0199 29.8025L57.0105 31.7438Z" fill="white"/>
<path d="M67.2372 21.3109H70.0765V33.2742H67.2865L67.1405 31.5273C66.4614 32.9347 64.5923 33.6146 63.258 33.6383C59.7149 33.663 57.0938 31.479 57.0938 27.2807C57.0938 23.1545 59.8364 20.9951 63.331 21.0197C64.9327 21.0197 66.4614 21.7718 67.1405 22.961L67.2372 21.3109ZM60.0536 27.2807C60.0536 29.5624 61.6306 30.9204 63.5966 30.9204C68.2567 30.9204 68.2567 23.6647 63.5966 23.6647C61.6279 23.6647 60.0536 24.999 60.0536 27.2807Z" fill="white"/>
<path d="M75.2701 16.3125V33.2755H72.334V16.3125H75.2701Z" fill="white"/>
<path d="M80.0485 28.3472C80.242 29.8275 81.5293 30.8953 83.6156 30.8953C84.7107 30.8953 86.1395 30.4828 86.8191 29.7791L88.7116 31.6474C87.4505 32.958 85.3871 33.5886 83.5666 33.5886C79.4416 33.5886 76.9902 31.0404 76.9902 27.2063C76.9902 23.5666 79.4653 20.9453 83.349 20.9453C87.3523 20.9453 89.8525 23.4205 89.3912 28.3472H80.0485ZM86.5525 25.8957C86.3578 24.3442 85.1442 23.5666 83.4488 23.5666C81.8475 23.5666 80.5369 24.3423 80.1006 25.8957H86.5525Z" fill="white"/>
<path d="M100.009 33.2749V27.0177C100.009 25.1978 99.0142 23.8142 97.1217 23.8142C95.2963 23.8142 94.063 25.3438 94.063 27.1636V33.2785H91.127V21.287H93.7735L93.9681 22.9133C95.181 21.7269 96.3947 21.1172 97.8987 21.1172C100.714 21.1172 102.972 23.2282 102.972 26.9903V33.2749H100.009Z" fill="white"/>
<path d="M107.98 21.3086V27.5695C107.98 29.3893 108.975 30.773 110.868 30.773C112.688 30.773 113.926 29.2434 113.926 27.4235V21.3086H116.863V33.2965H114.216L114.023 31.6692C112.786 32.8831 111.645 33.4654 109.97 33.4654C107.107 33.4654 105.02 31.3059 105.02 27.5923V21.3086H107.98Z" fill="white"/>
<path d="M123.22 17.9375V21.3344H126.521V23.8827H123.195V29.0521C123.195 30.192 123.826 30.7506 124.747 30.7506C125.246 30.7361 125.735 30.6114 126.179 30.3855L127.001 32.9099C126.223 33.2338 125.391 33.4067 124.549 33.4192C121.957 33.5168 120.259 32.0364 120.259 29.0521V23.8827H118.027V21.3344H120.259V18.2551L123.22 17.9375Z" fill="white"/>
</g>
<defs>
<clipPath id="clip0_5055_67261">
<rect width="127" height="48" fill="white"/>
</clipPath>
</defs>
</svg>
