<svg width="127" height="48" viewBox="0 0 127 48" fill="none" xmlns="http://www.w3.org/2000/svg">
<g clip-path="url(#clip0_5055_67273)">
<path d="M90.5 21.119C94.6421 21.119 98 17.7685 98 13.6354C98 9.50237 94.6421 6.15186 90.5 6.15186C86.3579 6.15186 83 9.50237 83 13.6354C83 17.7685 86.3579 21.119 90.5 21.119Z" fill="#333333"/>
<path d="M90.4997 19.9116C93.9735 19.9116 96.7895 17.1018 96.7895 13.6356C96.7895 10.1695 93.9735 7.35962 90.4997 7.35962C87.026 7.35962 84.21 10.1695 84.21 13.6356C84.21 17.1018 87.026 19.9116 90.4997 19.9116Z" fill="#262626"/>
<path d="M90.4996 18.4498C93.1638 18.4498 95.3235 16.2949 95.3235 13.6365C95.3235 10.9782 93.1638 8.82324 90.4996 8.82324C87.8355 8.82324 85.6758 10.9782 85.6758 13.6365C85.6758 16.2949 87.8355 18.4498 90.4996 18.4498Z" fill="#666666"/>
<path d="M90.4999 16.8492C92.2792 16.8492 93.7215 15.41 93.7215 13.6347C93.7215 11.8594 92.2792 10.4202 90.4999 10.4202C88.7207 10.4202 87.2783 11.8594 87.2783 13.6347C87.2783 15.41 88.7207 16.8492 90.4999 16.8492Z" fill="white"/>
<path d="M29 18.7039H42.9773V22.4116L35.6136 31.0858L35.9886 31.613H43.1989V35.8481H29V32.2763L36.4489 23.5512L35.9886 23.0069H29V18.7039Z" fill="white"/>
<path d="M44.1875 13.228V17.2249H46.1307V35.8488H51.8068V13.228H44.1875Z" fill="white"/>
<path d="M54.2441 18.7039V28.9087C54.2745 30.4708 54.6902 32.0013 55.4544 33.3649C56.1542 34.4465 57.238 35.2242 58.4885 35.5419C60.1446 35.9074 61.8607 35.9074 63.5169 35.5419C64.4478 35.1758 65.3435 34.726 66.193 34.1983V35.797H70.7441V18.7889H65.0851V28.6196C65.0851 28.6196 65.085 30.5755 63.6021 31.0688C63.1136 31.2726 62.5794 31.3422 62.0548 31.2704C61.5303 31.1987 61.0346 30.9881 60.6191 30.6606C60.32 30.2119 60.0955 29.718 59.9544 29.1979V18.7039H54.2441Z" fill="white"/>
<path d="M72.9268 18.7033V35.8135H78.7052V26.9353C78.7052 26.9353 78.7052 23.5336 81.4836 23.4146H83.7847V18.4652C83.7847 18.4652 78.8586 18.057 77.4097 22.3601V18.7033H72.9268Z" fill="white"/>
<path d="M86.1533 18.7039V22.8028H88.3522V35.8481H93.926V18.7039H86.1533Z" fill="white"/>
</g>
<defs>
<clipPath id="clip0_5055_67273">
<rect width="69" height="29.6962" fill="white" transform="translate(29 6.15234)"/>
</clipPath>
</defs>
</svg>
