<svg width="127" height="48" viewBox="0 0 127 48" fill="none" xmlns="http://www.w3.org/2000/svg">
<g clip-path="url(#clip0_5044_63717)">
<path d="M90.5 21.1195C94.6421 21.1195 98 17.769 98 13.6359C98 9.50286 94.6421 6.15234 90.5 6.15234C86.3579 6.15234 83 9.50286 83 13.6359C83 17.769 86.3579 21.1195 90.5 21.1195Z" fill="#D1D5DB"/>
<path d="M90.5002 19.9114C93.974 19.9114 96.79 17.1015 96.79 13.6354C96.79 10.1692 93.974 7.35938 90.5002 7.35938C87.0265 7.35938 84.2104 10.1692 84.2104 13.6354C84.2104 17.1015 87.0265 19.9114 90.5002 19.9114Z" fill="#E5E7EB"/>
<path d="M90.5001 18.4508C93.1643 18.4508 95.324 16.2958 95.324 13.6375C95.324 10.9792 93.1643 8.82422 90.5001 8.82422C87.836 8.82422 85.6763 10.9792 85.6763 13.6375C85.6763 16.2958 87.836 18.4508 90.5001 18.4508Z" fill="#D1D5DB"/>
<path d="M90.4999 16.8509C92.2792 16.8509 93.7215 15.4118 93.7215 13.6364C93.7215 11.8611 92.2792 10.4219 90.4999 10.4219C88.7207 10.4219 87.2783 11.8611 87.2783 13.6364C87.2783 15.4118 88.7207 16.8509 90.4999 16.8509Z" fill="#9CA3AF"/>
<path d="M29 18.7031H42.9773V22.4109L35.6136 31.085L35.9886 31.6123H43.1989V35.8473H29V32.2756L36.4489 23.5504L35.9886 23.0062H29V18.7031Z" fill="#9CA3AF"/>
<path d="M44.1875 13.2266V17.2235H46.1307V35.8474H51.8068V13.2266H44.1875Z" fill="#9CA3AF"/>
<path d="M54.2441 18.7031V28.908C54.2745 30.47 54.6902 32.0005 55.4544 33.3641C56.1542 34.4458 57.238 35.2234 58.4885 35.5412C60.1446 35.9067 61.8607 35.9067 63.5169 35.5412C64.4478 35.175 65.3435 34.7253 66.193 34.1975V35.7963H70.7441V18.7882H65.0851V28.6189C65.0851 28.6189 65.085 30.5748 63.6021 31.068C63.1136 31.2719 62.5794 31.3415 62.0548 31.2697C61.5303 31.1979 61.0346 30.9874 60.6191 30.6598C60.32 30.2112 60.0955 29.7173 59.9544 29.1971V18.7031H54.2441Z" fill="#9CA3AF"/>
<path d="M72.9263 18.7016V35.8118H78.7047V26.9336C78.7047 26.9336 78.7047 23.5319 81.4831 23.4129H83.7842V18.4635C83.7842 18.4635 78.8581 18.0553 77.4092 22.3584V18.7016H72.9263Z" fill="#9CA3AF"/>
<path d="M86.1533 18.7031V22.8021H88.3522V35.8473H93.926V18.7031H86.1533Z" fill="#9CA3AF"/>
</g>
<defs>
<clipPath id="clip0_5044_63717">
<rect width="69" height="29.6962" fill="white" transform="translate(29 6.15234)"/>
</clipPath>
</defs>
</svg>
