<svg width="58" height="48" viewBox="0 0 58 48" fill="none" xmlns="http://www.w3.org/2000/svg">
<path d="M35.2927 10L39 6.28213L21 1L35.2927 10Z" fill="black"/>
<path d="M38.4939 24.5924V7.44059L35.4817 12.0657L21.9304 1.50488H2.50611V46.4875H38.4939V37.7782H40V48H1V0H22.5889L40 5.74141V24.5924H38.4939Z" fill="black"/>
<mask id="mask0_252_17862" style="mask-type:luminance" maskUnits="userSpaceOnUse" x="0" y="0" width="58" height="48">
<path d="M57.1544 0H0.663086V47.1733H57.1544V0Z" fill="white"/>
</mask>
<g mask="url(#mask0_252_17862)">
<path d="M8.48373 20.4189C8.5853 20.4241 8.68672 20.4062 8.7804 20.3666C8.87408 20.327 8.95759 20.2668 9.02468 20.1904C9.1572 20.0318 9.2252 19.8292 9.21516 19.6227C9.22454 19.4222 9.15633 19.2257 9.02468 19.0742C8.95756 19.0044 8.8762 18.95 8.78614 18.9145C8.69608 18.879 8.59944 18.8633 8.50278 18.8685H7.94659V20.3923L8.48373 20.4189ZM6.30469 17.4742H8.72373C9.01452 17.4579 9.30559 17.5009 9.5793 17.6004C9.85301 17.6999 10.1037 17.854 10.3161 18.0532C10.6921 18.4949 10.8986 19.056 10.8986 19.6361C10.8986 20.2161 10.6921 20.7772 10.3161 21.2189C10.1102 21.4222 9.86448 21.5806 9.59436 21.6842C9.32423 21.7878 9.03558 21.8343 8.74659 21.8208H7.94659V24.1637H6.30469V17.4742Z" fill="black"/>
<path d="M13.1961 22.5484C13.2996 22.6592 13.4255 22.7467 13.5654 22.8051C13.7052 22.8636 13.8559 22.8917 14.0075 22.8875C14.1628 22.891 14.3171 22.8615 14.4602 22.8011C14.6034 22.7407 14.7321 22.6507 14.838 22.537C15.059 22.2953 15.1765 21.9767 15.1656 21.6494C15.1722 21.4877 15.1466 21.3264 15.0904 21.1747C15.0341 21.0229 14.9483 20.8839 14.838 20.7656C14.7304 20.6549 14.6011 20.5676 14.4582 20.5093C14.3152 20.4509 14.1618 20.4228 14.0075 20.4265C13.8546 20.4218 13.7025 20.4503 13.5617 20.5102C13.421 20.57 13.2949 20.6598 13.1923 20.7732C12.976 21.02 12.8628 21.3405 12.8761 21.6684C12.8622 21.9925 12.9772 22.309 13.1961 22.5484ZM11.6304 20.3123C11.8659 19.9128 12.2056 19.5849 12.6132 19.3637C13.0416 19.1341 13.5215 19.0174 14.0075 19.0246C14.3719 19.0102 14.7356 19.068 15.0776 19.1949C15.4196 19.3217 15.733 19.515 15.9999 19.7637C16.2524 20.0067 16.4507 20.3003 16.582 20.6253C16.7133 20.9502 16.7746 21.2992 16.7618 21.6494C16.7681 22.1239 16.6457 22.5913 16.4075 23.0018C16.1709 23.4021 15.8281 23.7291 15.417 23.9465C14.9779 24.1694 14.4923 24.2856 13.9999 24.2856C13.5074 24.2856 13.0219 24.1694 12.5827 23.9465C12.1762 23.73 11.8384 23.4041 11.6075 23.0056C11.3766 22.5929 11.2554 22.128 11.2554 21.6551C11.2554 21.1823 11.3766 20.7173 11.6075 20.3046" fill="black"/>
<path d="M18.0077 22.56C18.3076 22.8402 18.7022 22.9967 19.1125 22.9981C19.4096 22.9981 19.562 22.9067 19.562 22.7238C19.5593 22.682 19.546 22.6415 19.5233 22.6061C19.5007 22.5708 19.4694 22.5419 19.4325 22.5219C19.3324 22.4564 19.225 22.4027 19.1125 22.3619L18.663 22.2134C18.493 22.1556 18.3275 22.0856 18.1677 22.0038C18.0071 21.9192 17.8563 21.817 17.7182 21.6991C17.5758 21.5704 17.4639 21.4116 17.3906 21.2343C17.3016 21.0249 17.2587 20.7989 17.2649 20.5715C17.2551 20.3501 17.3004 20.1298 17.3968 19.9303C17.4932 19.7308 17.6377 19.5584 17.8173 19.4286C18.2204 19.1365 18.7103 18.9889 19.2077 19.0096C19.5582 18.9921 19.9075 19.0628 20.2236 19.2152C20.5397 19.3676 20.8126 19.5968 21.0173 19.8819L19.9811 20.6972C19.8747 20.5809 19.746 20.4873 19.6027 20.4218C19.4593 20.3564 19.3043 20.3204 19.1468 20.3162C19.0529 20.3104 18.9595 20.3344 18.8801 20.3848C18.8494 20.4034 18.8241 20.4297 18.8068 20.4611C18.7894 20.4925 18.7805 20.5279 18.7811 20.5638C18.7833 20.6078 18.7963 20.6506 18.8189 20.6885C18.8415 20.7263 18.8729 20.7581 18.9106 20.781C19.0136 20.8501 19.1267 20.9028 19.2458 20.9372C19.3792 20.9829 19.5315 21.0286 19.6954 21.0743C19.866 21.126 20.0327 21.1897 20.1944 21.2648C20.3564 21.3401 20.5086 21.4347 20.6477 21.5467C20.7908 21.6695 20.9041 21.8232 20.9792 21.9962C21.0681 22.2017 21.1122 22.4238 21.1087 22.6476C21.1151 22.8807 21.0651 23.1119 20.9629 23.3215C20.8608 23.5311 20.7095 23.7129 20.522 23.8515C20.0965 24.1627 19.5784 24.3211 19.0515 24.301C18.647 24.3098 18.2461 24.2223 17.882 24.0457C17.5853 23.9044 17.3247 23.6973 17.1201 23.44L18.0077 22.56Z" fill="black"/>
<path d="M21.3369 19.1503H21.8245V18.0836H23.4283V19.1503H24.2817V20.4379H23.4283V22.2855C23.4283 22.6436 23.6379 22.8265 24.0531 22.8265C24.1419 22.831 24.2309 22.831 24.3198 22.8265V24.1941C24.1185 24.2383 23.9125 24.2575 23.7064 24.2512C23.4519 24.2695 23.1963 24.2364 22.9549 24.1539C22.7134 24.0714 22.4909 23.9413 22.3007 23.7712C21.9435 23.3361 21.7723 22.7775 21.8245 22.2169V20.4379H21.3369V19.1503Z" fill="black"/>
<path d="M28.137 21.0589C28.1322 20.8587 28.0487 20.6685 27.9046 20.5294C27.7463 20.3839 27.5367 20.3071 27.3218 20.3161C27.2158 20.3108 27.1099 20.3278 27.0108 20.3658C26.9118 20.4039 26.8218 20.4622 26.7465 20.537C26.6114 20.6799 26.527 20.8633 26.5065 21.0589H28.137ZM25.1237 20.3351C25.3194 19.9399 25.6233 19.6084 25.9999 19.3789C26.3876 19.1397 26.8358 19.0168 27.2913 19.0247C27.6314 19.0032 27.972 19.0565 28.2893 19.1809C28.6065 19.3053 28.8926 19.4977 29.1275 19.7447C29.5878 20.3105 29.8201 21.0278 29.7789 21.7561C29.7789 21.8894 29.7789 21.9923 29.7789 22.0685H26.457C26.4668 22.1845 26.501 22.2971 26.5575 22.3988C26.6139 22.5006 26.6914 22.5893 26.7846 22.6589C26.9944 22.8255 27.2559 22.9132 27.5237 22.9066C27.7604 22.914 27.994 22.8503 28.1942 22.7237C28.3444 22.6334 28.4741 22.5127 28.5751 22.3694L29.6303 23.1808C29.5714 23.2902 29.4984 23.3914 29.4132 23.4818C29.287 23.6117 29.1507 23.7315 29.0056 23.8399C28.8055 23.9838 28.5827 24.0932 28.3465 24.1637C27.585 24.3909 26.7648 24.3116 26.0608 23.9427C25.6646 23.7269 25.3401 23.3998 25.1275 23.0018C24.91 22.5915 24.7999 22.1328 24.8075 21.6685C24.8016 21.2057 24.9074 20.7483 25.1161 20.3351" fill="black"/>
<path d="M30.4077 19.1505H31.9734V19.8096C32.0882 19.5671 32.2725 19.3642 32.503 19.2267C32.7463 19.0838 33.0246 19.0112 33.3068 19.0172V20.6477C33.2218 20.6421 33.1365 20.6421 33.0515 20.6477C32.3582 20.6477 32.0077 21.0858 32.0077 21.9696V24.1829H30.4077V19.1505Z" fill="black"/>
<path d="M6.22855 28.4647C6.39416 28.0534 6.64172 27.6801 6.95617 27.3676C7.28349 27.0496 7.67242 26.802 8.09902 26.6399C8.55689 26.4625 9.04419 26.3733 9.53521 26.3771C10.2305 26.3583 10.9145 26.5553 11.4933 26.9409L11.0362 28.3733C10.6126 28.0728 10.1078 27.9081 9.58854 27.9009C9.30947 27.8982 9.03255 27.9499 8.77331 28.0533C8.54458 28.1473 8.3401 28.2918 8.17521 28.4761C8.01804 28.6574 7.89654 28.8668 7.81712 29.0933C7.7282 29.3295 7.68302 29.5799 7.68378 29.8323C7.67992 30.1669 7.7529 30.498 7.89712 30.7999C8.04328 31.0949 8.27059 31.3421 8.55235 31.5123C8.86441 31.6973 9.22208 31.791 9.58473 31.7828C10.1104 31.7788 10.6228 31.6169 11.0552 31.318L11.4933 32.7618C10.9031 33.1474 10.2095 33.344 9.50473 33.3256C8.85039 33.3388 8.20407 33.1798 7.63045 32.8647C7.10929 32.5748 6.68124 32.1428 6.39617 31.619C6.10513 31.0731 5.95704 30.4623 5.96569 29.8437C5.96267 29.375 6.05199 28.9103 6.22855 28.4761" fill="black"/>
<path d="M13.882 31.5694C13.9851 31.6807 14.1109 31.7686 14.2509 31.8271C14.3909 31.8856 14.5418 31.9134 14.6935 31.9085C14.8483 31.9126 15.0023 31.8835 15.1449 31.823C15.2875 31.7626 15.4155 31.6722 15.5201 31.558C15.734 31.3125 15.8518 30.9979 15.8518 30.6723C15.8518 30.3467 15.734 30.0321 15.5201 29.7866C15.4131 29.6765 15.2843 29.5898 15.142 29.5321C14.9997 29.4744 14.847 29.4469 14.6935 29.4513C14.5409 29.4466 14.3892 29.4748 14.2485 29.5339C14.1078 29.5931 13.9815 29.6818 13.8782 29.7942C13.659 30.041 13.5442 30.3634 13.5582 30.6932C13.5513 30.8534 13.5764 31.0135 13.632 31.1639C13.6876 31.3143 13.7726 31.4522 13.882 31.5694ZM12.3163 29.3332C12.5485 28.9301 12.889 28.6002 13.2992 28.3808C13.7282 28.1529 14.2077 28.0363 14.6935 28.0418C15.0576 28.0279 15.4208 28.0864 15.7622 28.2139C16.1035 28.3415 16.4162 28.5354 16.682 28.7846C16.9368 29.03 17.1364 29.3267 17.2678 29.6551C17.3991 29.9835 17.4592 30.3361 17.4439 30.6894C17.4504 31.1632 17.3265 31.6297 17.0858 32.038C16.852 32.4401 16.5102 32.7687 16.0992 32.9865C15.6597 33.2106 15.1734 33.3275 14.6801 33.3275C14.1868 33.3275 13.7005 33.2106 13.2611 32.9865C12.855 32.7725 12.5182 32.4475 12.2897 32.0494C12.0563 31.6376 11.9336 31.1723 11.9336 30.6989C11.9336 30.2256 12.0563 29.7603 12.2897 29.3485" fill="black"/>
<path d="M18.1143 28.1904H19.68V28.6857C19.7918 28.4959 19.9522 28.3394 20.1447 28.2323C20.3781 28.1047 20.6407 28.0403 20.9066 28.0457C21.1638 28.03 21.4205 28.0828 21.6507 28.1985C21.8809 28.3143 22.0763 28.4889 22.2171 28.7047C22.3895 28.4838 22.6132 28.3083 22.8688 28.1935C23.1244 28.0786 23.4041 28.0279 23.6838 28.0457C23.9195 28.0292 24.1559 28.0647 24.3764 28.1496C24.5969 28.2346 24.7961 28.3668 24.96 28.5371C25.2644 28.9052 25.4194 29.3743 25.3942 29.8514V33.1885H23.7714V30.198C23.783 30.0075 23.7248 29.8192 23.6076 29.6685C23.5515 29.6053 23.4821 29.5554 23.4043 29.5225C23.3266 29.4895 23.2424 29.4743 23.1581 29.478C23.073 29.4744 22.9882 29.4904 22.9102 29.5248C22.8323 29.5591 22.7633 29.6109 22.7085 29.6761C22.5898 29.8233 22.5301 30.0093 22.5409 30.198V33.1885H20.9371V30.198C20.9478 30.0082 20.8911 29.8207 20.7771 29.6685C20.7222 29.605 20.6535 29.5548 20.5763 29.5218C20.499 29.4888 20.4153 29.4738 20.3314 29.478C20.247 29.4743 20.1629 29.4895 20.0851 29.5225C20.0073 29.5554 19.9379 29.6053 19.8819 29.6685C19.7627 29.8182 19.7043 30.0072 19.7181 30.198V33.1885H18.1143V28.1904Z" fill="black"/>
<path d="M28.1067 31.577C28.2057 31.6869 28.3277 31.7735 28.464 31.8308C28.6003 31.8881 28.7475 31.9146 28.8953 31.9085C29.0434 31.9137 29.1908 31.8856 29.3266 31.8262C29.4624 31.7669 29.5832 31.6778 29.68 31.5656C29.8857 31.3109 29.9913 30.9899 29.9772 30.6628C29.9942 30.3393 29.8865 30.0216 29.6762 29.7751C29.581 29.6675 29.4636 29.5818 29.332 29.524C29.2005 29.4661 29.058 29.4374 28.9143 29.4399C28.7633 29.4335 28.6128 29.4621 28.4746 29.5236C28.3365 29.585 28.2145 29.6777 28.1181 29.7942C27.9253 30.0514 27.821 30.3642 27.821 30.6856C27.821 31.0071 27.9253 31.3199 28.1181 31.577M26.2515 28.1904H27.7486V28.5713C27.8938 28.4226 28.0657 28.3024 28.2553 28.2171C28.5208 28.0974 28.8098 28.0388 29.101 28.0456C29.4328 28.034 29.7633 28.0935 30.0702 28.2204C30.3771 28.3472 30.6532 28.5383 30.88 28.7809C31.3515 29.3004 31.5992 29.9847 31.5696 30.6856C31.5998 31.3799 31.3672 32.06 30.9181 32.5904C30.7013 32.833 30.4334 33.0244 30.1337 33.1509C29.8339 33.2774 29.5098 33.3358 29.1848 33.3218C28.8955 33.3266 28.6088 33.2653 28.3467 33.1428C28.1619 33.0634 27.9938 32.9496 27.8515 32.8075V34.9789H26.2515V28.1904Z" fill="black"/>
<path d="M33.8519 26.2781H32.248V33.1885H33.8519V26.2781Z" fill="black"/>
<path d="M34.7693 28.1904H36.3731V33.1885H34.7693V28.1904ZM34.9178 26.3999C35.0911 26.2381 35.3208 26.1506 35.5578 26.1561C35.7959 26.1512 36.0266 26.2386 36.2017 26.3999C36.2862 26.4801 36.353 26.5771 36.3977 26.6848C36.4423 26.7924 36.4638 26.9082 36.4607 27.0247C36.4631 27.1394 36.4413 27.2533 36.3966 27.359C36.352 27.4647 36.2856 27.5598 36.2017 27.638C36.0277 27.8011 35.7962 27.8888 35.5578 27.8818C35.4403 27.8856 35.3232 27.866 35.2134 27.8241C35.1035 27.7823 35.0031 27.719 34.9178 27.638C34.8357 27.5588 34.7709 27.4634 34.7276 27.3578C34.6844 27.2522 34.6635 27.1388 34.6664 27.0247C34.6628 26.9088 34.6833 26.7935 34.7266 26.686C34.7699 26.5784 34.835 26.481 34.9178 26.3999Z" fill="black"/>
<path d="M38.8193 31.9504C38.9633 32.0465 39.134 32.0945 39.3069 32.0875C39.48 32.0956 39.651 32.0475 39.7945 31.9504C39.8556 31.9081 39.9049 31.8509 39.9375 31.7842C39.9702 31.7176 39.9853 31.6436 39.9812 31.5694C39.9815 31.4955 39.9644 31.4224 39.9313 31.3563C39.8982 31.2901 39.8501 31.2326 39.7907 31.1885C39.6457 31.0912 39.4738 31.0419 39.2993 31.0475C39.1258 31.0405 38.9551 31.0929 38.8155 31.1961C38.7564 31.2402 38.7086 31.2978 38.6761 31.364C38.6437 31.4303 38.6275 31.5033 38.6288 31.577C38.6248 31.6516 38.6402 31.7259 38.6736 31.7927C38.707 31.8595 38.7572 31.9165 38.8193 31.958M37.5583 30.4342C37.9624 30.1149 38.4689 29.9538 38.9831 29.9809C39.3154 29.9781 39.6451 30.0388 39.9545 30.1599V29.9809C39.954 29.9062 39.9357 29.8328 39.9013 29.7666C39.8668 29.7004 39.8172 29.6432 39.7564 29.5999C39.5876 29.4883 39.387 29.4348 39.185 29.4475C38.7431 29.4551 38.309 29.5646 37.9164 29.7675L37.3183 28.6932C37.9275 28.2842 38.6456 28.0678 39.3793 28.0723C39.7389 28.0525 40.0993 28.0925 40.446 28.1904C40.7077 28.2716 40.9413 28.4247 41.1202 28.6323C41.2751 28.8187 41.3893 29.0354 41.4555 29.2685C41.5247 29.5307 41.5581 29.8011 41.5545 30.0723V33.1809H40.1183L40.0345 32.9066C39.8789 33.0427 39.6976 33.1466 39.5014 33.212C39.3052 33.2774 39.0979 33.3031 38.8917 33.2875C38.5776 33.3051 38.2633 33.2558 37.9698 33.1428C37.6933 33.0166 37.4572 32.8161 37.2879 32.5637C37.1015 32.2846 37.007 31.9544 37.0174 31.619C37.01 31.3906 37.0542 31.1634 37.1465 30.9544C37.2388 30.7454 37.377 30.5598 37.5507 30.4113" fill="black"/>
<path d="M42.4151 28.1903H43.9809V28.6856C44.1097 28.4987 44.2806 28.3447 44.4799 28.2361C44.7125 28.1061 44.9754 28.0403 45.2418 28.0456C45.4415 28.0431 45.6405 28.07 45.8323 28.1256C45.9883 28.1704 46.1362 28.2398 46.2704 28.3313C46.393 28.4197 46.4988 28.5294 46.5828 28.6551C46.6634 28.7745 46.7311 28.9022 46.7847 29.0361C46.8376 29.1807 46.8771 29.3299 46.9028 29.4818C46.9307 29.6329 46.9498 29.7855 46.9599 29.9389C46.9599 30.0761 46.9599 30.2284 46.9599 30.3961V33.177H45.3561V30.198C45.3621 30.102 45.3491 30.0058 45.3177 29.9149C45.2863 29.824 45.2372 29.7402 45.1732 29.6684C45.1114 29.6054 45.0372 29.5559 44.9552 29.5231C44.8732 29.4903 44.7853 29.4749 44.697 29.478C44.6024 29.4729 44.5079 29.4884 44.4198 29.5232C44.3317 29.5581 44.2521 29.6115 44.1866 29.6799C44.0619 29.8232 43.9954 30.008 43.9999 30.198V33.1884H42.3999L42.4151 28.1903Z" fill="black"/>
<path d="M48.373 28.7885C48.6332 28.5424 48.9394 28.35 49.2741 28.2225C49.6088 28.0951 49.9654 28.035 50.3234 28.0456C50.8578 28.039 51.3811 28.1987 51.8206 28.5028L51.3901 29.8514C51.1101 29.6076 50.7519 29.4724 50.3806 29.4704C50.2201 29.4627 50.0598 29.4889 49.9102 29.5473C49.7605 29.6057 49.6248 29.6951 49.512 29.8095C49.3053 30.0563 49.1945 30.3694 49.2001 30.6913C49.2057 31.0133 49.3273 31.3223 49.5425 31.5618C49.6612 31.6756 49.8017 31.7643 49.9556 31.8226C50.1094 31.8809 50.2734 31.9075 50.4377 31.9009C50.7872 31.8997 51.1248 31.7741 51.3901 31.5466L51.8092 32.8533C51.3806 33.151 50.8719 33.3117 50.3501 33.3142C49.9893 33.3275 49.6293 33.2691 49.2912 33.1422C48.9532 33.0153 48.6436 32.8226 48.3806 32.5752C47.885 32.0696 47.6074 31.3898 47.6074 30.6818C47.6074 29.9739 47.885 29.2941 48.3806 28.7885" fill="black"/>
<path d="M55.5236 30.0952C55.5167 29.8958 55.4319 29.707 55.2874 29.5695C55.2104 29.4963 55.1194 29.4394 55.0199 29.4021C54.9205 29.3648 54.8145 29.3479 54.7084 29.3523C54.6015 29.347 54.4947 29.3643 54.3949 29.403C54.2951 29.4418 54.2046 29.5011 54.1293 29.5771C53.9942 29.7185 53.9098 29.9007 53.8893 30.0952H55.5236ZM52.5065 29.3714C52.7032 28.9769 53.0068 28.6456 53.3827 28.4152C53.7708 28.177 54.2187 28.0541 54.6741 28.0609C55.0142 28.0394 55.3548 28.0928 55.6721 28.2172C55.9893 28.3416 56.2754 28.534 56.5103 28.7809C56.9694 29.3485 57.1991 30.0675 57.1541 30.7961C57.1541 30.9257 57.1541 31.0285 57.1541 31.1085H53.8512C53.8621 31.2246 53.8973 31.3372 53.9543 31.4389C54.0114 31.5406 54.0892 31.6292 54.1826 31.699C54.3909 31.8651 54.6516 31.9516 54.9179 31.9428C55.1243 31.9465 55.3285 31.8995 55.5125 31.8058C55.6965 31.7121 55.8546 31.5747 55.9731 31.4057L57.0284 32.2171C56.9721 32.3281 56.8989 32.4297 56.8112 32.518C56.6859 32.6559 56.5496 32.7833 56.4036 32.899C56.2041 33.043 55.9811 33.1513 55.7446 33.219C55.4676 33.3076 55.1782 33.3513 54.8874 33.3485C54.3903 33.3601 53.8989 33.2406 53.4627 33.0019C53.0672 32.7849 52.743 32.4581 52.5293 32.0609C52.3121 31.6491 52.2021 31.1893 52.2093 30.7238C52.2038 30.261 52.3097 29.8037 52.5179 29.3904" fill="black"/>
<path d="M6.22856 37.4893C6.39376 37.0728 6.6441 36.6953 6.96357 36.3811C7.28303 36.0669 7.66458 35.8228 8.08379 35.6646C8.54084 35.4839 9.02853 35.3933 9.51998 35.3979C10.2204 35.3759 10.9102 35.573 11.4933 35.9617L11.0362 37.3941C10.6115 37.0963 10.1072 36.933 9.58855 36.9255C9.30932 36.9209 9.03202 36.9727 8.77332 37.0779C8.54459 37.1719 8.34011 37.3165 8.17522 37.5008C8.01805 37.6821 7.89655 37.8915 7.81713 38.1179C7.72754 38.3539 7.68234 38.6045 7.68379 38.8569C7.68033 39.1915 7.7533 39.5225 7.89713 39.8246C8.04457 40.1177 8.27167 40.3632 8.55237 40.5331C8.86329 40.7212 9.2215 40.8163 9.58474 40.8074C10.111 40.8038 10.6238 40.6404 11.0552 40.3388L11.4933 41.7712C10.9042 42.1592 10.2098 42.3561 9.50474 42.335C8.85094 42.3475 8.20509 42.19 7.63046 41.8779C7.10418 41.5879 6.67091 41.1547 6.38094 40.6284C6.0952 40.0824 5.95235 39.473 5.9657 38.8569C5.96228 38.3882 6.05161 37.9234 6.22856 37.4893Z" fill="black"/>
<path d="M15.3026 39.1046C15.2978 38.9044 15.2143 38.7142 15.0703 38.5751C14.9119 38.4295 14.7023 38.3528 14.4874 38.3617C14.3814 38.3565 14.2755 38.3734 14.1765 38.4115C14.0774 38.4495 13.9874 38.5078 13.9122 38.5827C13.777 38.7256 13.6927 38.909 13.6722 39.1046H15.3026ZM12.2893 38.3808C12.4851 37.9856 12.7889 37.654 13.1655 37.4246C13.5532 37.1854 14.0014 37.0624 14.4569 37.0703C14.797 37.0488 15.1377 37.1022 15.4549 37.2266C15.7722 37.351 16.0583 37.5434 16.2931 37.7903C16.7493 38.3578 16.9775 39.075 16.9331 39.8017C16.9331 39.9351 16.9331 40.0379 16.9331 40.1141H13.6074C13.6164 40.2303 13.6503 40.3432 13.7069 40.445C13.7634 40.5469 13.8412 40.6355 13.935 40.7046C14.1448 40.8712 14.4063 40.9588 14.6741 40.9522C14.9105 40.958 15.1431 40.8916 15.3407 40.7617C15.4915 40.672 15.6213 40.5513 15.7217 40.4074L16.7769 41.2189C16.718 41.3282 16.645 41.4294 16.5598 41.5198C16.4336 41.6498 16.2973 41.7695 16.1522 41.8779C15.9516 42.021 15.729 42.1304 15.4931 42.2017C14.7314 42.4269 13.9119 42.3477 13.2074 41.9808C12.813 41.7638 12.49 41.4369 12.2779 41.0398C12.0604 40.6295 11.9503 40.1708 11.9579 39.7065C11.952 39.2437 12.0578 38.7863 12.2665 38.3732" fill="black"/>
<path d="M17.5581 37.1961H19.1124V37.7142C19.2403 37.5275 19.4116 37.3746 19.6114 37.2685C19.8434 37.1369 20.1068 37.0711 20.3733 37.078C20.5728 37.0743 20.7718 37.1 20.9638 37.1542C21.1208 37.1984 21.269 37.2693 21.4019 37.3637C21.5254 37.4511 21.6314 37.561 21.7143 37.6875C21.7958 37.8065 21.8635 37.9343 21.9162 38.0685C21.9696 38.2143 22.0091 38.3648 22.0343 38.518C22.0627 38.6691 22.0818 38.8217 22.0914 38.9752C22.0914 39.1085 22.0914 39.2609 22.0914 39.4285V42.2094H20.5143V39.238C20.5201 39.1421 20.5069 39.0459 20.4756 38.955C20.4442 38.8642 20.3952 38.7804 20.3314 38.7085C20.2694 38.6459 20.1951 38.597 20.1131 38.5649C20.0311 38.5327 19.9432 38.5181 19.8552 38.5218C19.7606 38.516 19.6658 38.5311 19.5776 38.566C19.4893 38.6009 19.4099 38.6547 19.3448 38.7237C19.221 38.8661 19.1545 39.0494 19.1581 39.238V42.2285H17.5581V37.1961Z" fill="black"/>
<path d="M22.6436 37.1961H23.1312V36.1294H24.735V37.1961H25.5883V38.4761H24.735V40.3237C24.735 40.6818 24.9445 40.8646 25.3597 40.8646C25.4486 40.8692 25.5376 40.8692 25.6264 40.8646V42.2322C25.4251 42.2765 25.2191 42.2957 25.0131 42.2894C24.7586 42.3076 24.503 42.2745 24.2615 42.1921C24.02 42.1096 23.7976 41.9795 23.6074 41.8094C23.2508 41.3738 23.0798 40.8156 23.1312 40.2551V38.4761H22.6436V37.1961Z" fill="black"/>
<path d="M29.4476 39.1046C29.4417 38.9039 29.3568 38.7135 29.2114 38.5751C29.1344 38.5032 29.0439 38.4474 28.9451 38.4108C28.8464 38.3741 28.7414 38.3575 28.6361 38.3617C28.5295 38.3559 28.4229 38.3726 28.3231 38.4107C28.2234 38.4487 28.1327 38.5073 28.0571 38.5827C27.9216 38.7249 27.8383 38.9089 27.8209 39.1046H29.4476ZM26.4304 38.3808C26.6274 37.9864 26.9309 37.6552 27.3066 37.4246C27.6948 37.1864 28.1427 37.0635 28.598 37.0703C28.9381 37.0488 29.2788 37.1022 29.596 37.2266C29.9133 37.351 30.1994 37.5434 30.4342 37.7903C30.8934 38.3563 31.1232 39.0743 31.078 39.8017C31.078 39.9351 31.078 40.0379 31.078 40.1141H27.7638C27.7742 40.2304 27.8091 40.3431 27.8662 40.4448C27.9234 40.5466 28.0014 40.6351 28.0952 40.7046C28.3039 40.8703 28.564 40.9579 28.8304 40.9522C29.0672 40.9596 29.3007 40.896 29.5009 40.7693C29.652 40.6801 29.7819 40.5593 29.8818 40.4151L30.9371 41.2265C30.8809 41.3375 30.8076 41.4391 30.7199 41.5274C30.5946 41.6583 30.4582 41.7781 30.3123 41.8855C30.1131 42.0287 29.8918 42.1381 29.6571 42.2093C29.3781 42.2945 29.0878 42.3369 28.7961 42.3351C28.299 42.3467 27.8076 42.2271 27.3714 41.9884C26.9759 41.7715 26.6518 41.4446 26.438 41.0474C26.2205 40.6371 26.1104 40.1784 26.118 39.7141C26.1121 39.2513 26.218 38.7939 26.4266 38.3808" fill="black"/>
<path d="M31.7144 37.1961H33.2801V37.8628C33.3949 37.6203 33.5792 37.4174 33.8096 37.2799C34.053 37.137 34.3312 37.0645 34.6134 37.0704V38.6933C34.5284 38.6876 34.4431 38.6876 34.3582 38.6933C33.6648 38.6933 33.3182 39.1314 33.3182 40.0152V42.2285H31.7144V37.1961Z" fill="black"/>
</g>
</svg>
