<svg width="112" height="36" viewBox="0 0 112 36" fill="none" xmlns="http://www.w3.org/2000/svg">
<g id="Frame 50" clip-path="url(#clip0_252_17927)">
<path id="Vector" d="M19.4333 24.9092H13.196L8.02851 16.6544L5.94838 18.9107V24.9092H0.5V0H5.94838V12.6343L12.123 5.49409H19.0568L12.2515 12.9001L19.4333 24.9092Z" fill="black"/>
<path id="Vector_2" d="M111.5 5.30682V10.0821H107.277V24.9092H101.817V10.0821H101.685C101.685 10.0821 97.7342 10.0428 97.7342 12.7853V24.9092H92.3037V5.30682H97.7461V7.29726C97.7461 7.29726 98.6427 5.40348 101.829 5.30682V0H107.277V5.26756C109.557 5.27964 111.5 5.30682 111.5 5.30682Z" fill="black"/>
<path id="Vector_3" d="M82.3214 5.10754C80.3559 5.11101 78.435 5.7003 76.7992 6.80166C75.1634 7.90303 73.8855 9.46753 73.1252 11.2993C72.5353 9.87487 71.6296 8.60631 70.4779 7.59148C69.3262 6.57665 67.9593 5.84264 66.4826 5.44605C65.0059 5.04946 63.4587 5.00087 61.9605 5.30404C60.4622 5.6072 59.0529 6.25402 57.8411 7.19463C57.4269 6.65753 56.8956 6.22435 56.2885 5.92886C55.6814 5.63338 55.0151 5.48358 54.3413 5.49113V8.20948C54.6773 8.28624 54.9775 8.4762 55.1926 8.74817C55.4077 9.02014 55.5248 9.35794 55.5248 9.70609C55.5248 10.0542 55.4077 10.392 55.1926 10.664C54.9775 10.936 54.6773 11.1259 54.3413 11.2027V35.994L58.6151 31.9558V23.7313C59.8412 24.5101 61.2204 25.0099 62.6569 25.1958C64.0934 25.3817 65.5526 25.2493 66.9334 24.8079C68.3141 24.3664 69.5832 23.6264 70.6525 22.6394C71.7217 21.6523 72.5655 20.4418 73.1252 19.0919C73.8228 20.7755 74.9592 22.2363 76.4134 23.3186C77.8676 24.4009 79.5851 25.0643 81.3829 25.238C83.1807 25.4117 84.9915 25.0892 86.6223 24.3049C88.253 23.5206 89.6427 22.3039 90.6433 20.7844C91.6438 19.2649 92.2177 17.4996 92.3037 15.6765C92.3898 13.8534 91.9849 12.0408 91.1321 10.432C90.2792 8.82309 89.0105 7.47818 87.461 6.54054C85.9116 5.60289 84.1394 5.10764 82.3334 5.10754H82.3214ZM63.9111 20.7864C61.2213 20.7864 59.0425 18.2825 59.0425 15.1956C59.0425 12.1088 61.2243 9.60188 63.9111 9.60188C66.5979 9.60188 68.7737 12.1028 68.7737 15.1956C68.7737 18.2885 66.5979 20.7864 63.9111 20.7864ZM82.3214 20.7864C79.6316 20.7864 77.4528 18.2825 77.4528 15.1956C77.4528 12.1088 79.6346 9.60188 82.3214 9.60188C85.0082 9.60188 87.19 12.1028 87.19 15.1956C87.19 18.2885 85.0112 20.7864 82.3214 20.7864Z" fill="black"/>
<path id="Vector_4" d="M35.5813 15.1956C35.5817 14.4081 35.4894 13.6233 35.3064 12.8578C34.7497 10.5067 33.3746 8.43646 31.4324 7.02523C29.4902 5.61401 27.1104 4.95601 24.7278 5.17142C22.3452 5.38684 20.1188 6.4613 18.4553 8.19852C16.7917 9.93575 15.8021 12.2198 15.6672 14.6334C15.5323 17.0471 16.2611 19.4292 17.7205 21.3447C19.1798 23.2602 21.2724 24.5812 23.6158 25.0664C25.9592 25.5516 28.3972 25.1686 30.4843 23.9874C32.5715 22.8062 34.1684 20.9056 34.9836 18.6328H29.9028C29.503 19.1625 29.0107 19.614 28.4503 19.9648C27.5977 20.5048 26.6112 20.7896 25.6051 20.7863C24.4823 20.7805 23.3887 20.4246 22.4735 19.7673C21.5583 19.11 20.8661 18.1832 20.4914 17.1136H35.396C35.5202 16.482 35.5823 15.8395 35.5813 15.1956ZM20.6648 12.8578C21.0867 11.889 21.7784 11.0651 22.6556 10.4867C23.5329 9.90826 24.5577 9.60028 25.6051 9.60028C26.6525 9.60028 27.6773 9.90826 28.5545 10.4867C29.4317 11.0651 30.1235 11.889 30.5454 12.8578H20.6648Z" fill="black"/>
<path id="Vector_5" d="M109.787 24.9122C110.733 24.9122 111.5 24.1373 111.5 23.1815C111.5 22.2257 110.733 21.4508 109.787 21.4508C108.841 21.4508 108.075 22.2257 108.075 23.1815C108.075 24.1373 108.841 24.9122 109.787 24.9122Z" fill="black"/>
<path id="Vector_6" d="M52.4736 9.69849C52.4686 10.0486 52.5829 10.3897 52.7973 10.6647C53.0117 10.9397 53.3132 11.1318 53.6512 11.2087V36L49.3803 31.9618V23.1513C46.7592 25.178 43.5374 25.2656 43.5374 25.2656C42.7091 25.2935 41.881 25.203 41.0777 24.9968C35.719 23.5893 35.5815 17.1438 35.5815 16.4823V5.49109H41.0777V16.3947C41.0777 20.88 44.3115 20.3574 44.3115 20.3574C46.8071 20.5085 48.4389 18.8684 49.3923 17.4397V9.49613C49.3923 7.2852 51.305 5.49109 53.6631 5.49109V8.20944C53.327 8.28422 53.0261 8.47241 52.8099 8.74306C52.5937 9.0137 52.4751 9.35066 52.4736 9.69849Z" fill="black"/>
</g>
<defs>
<clipPath id="clip0_252_17927">
<rect width="111" height="36" fill="white" transform="translate(0.5)"/>
</clipPath>
</defs>
</svg>
