<svg width="49" height="42" viewBox="0 0 49 42" fill="none" xmlns="http://www.w3.org/2000/svg">
<g id="Layer_1" clip-path="url(#clip0_252_17893)">
<path id="Vector" d="M7.96128 16.2814C7.96128 16.2814 8.30848 26.0939 0 33.4533C0 33.4533 6.96612 33.23 10.3991 29.2829C10.3991 29.2829 7.7999 30.6665 6.73139 30.1415C6.73139 30.1415 5.8976 29.9772 6.45264 29.1088C7.00768 28.2404 9.01756 25.537 9.01756 25.537C9.01756 25.537 11.9541 22.1689 11.981 16.2814H7.96128Z" fill="black"/>
<path id="Vector_2" d="M41.0388 16.2814C41.0388 16.2814 40.6892 26.0939 49.0001 33.4533C49.0001 33.4533 42.034 33.23 38.601 29.283C38.601 29.283 41.2002 30.6665 42.2687 30.1416C42.2687 30.1416 43.1025 29.9772 42.5475 29.1088C41.9924 28.2404 39.9825 25.537 39.9825 25.537C39.9825 25.537 37.0362 22.1664 37.0068 16.2789L41.0388 16.2814Z" fill="black"/>
<path id="Vector_3" d="M27.7252 21.509C25.5515 25.1887 25.3339 34.4419 25.3339 34.4419C27.5688 33.1147 30.8672 32.6241 31.0702 32.5947C25.9036 34.6921 24.6248 41.551 24.549 41.9779C24.5485 41.9852 24.5485 41.9926 24.549 42V41.9779C24.4732 41.551 23.1945 34.6823 18.0182 32.5922C18.0182 32.5922 21.4584 33.0828 23.7642 34.4419C23.7642 34.4419 23.5466 25.1862 21.3729 21.509C20.2606 19.5904 18.8944 17.8319 17.3115 16.2814H21.5171C22.697 17.9947 23.6897 19.8304 24.4781 21.7568L24.5442 21.9285L24.6102 21.7568C25.3986 19.8304 26.3913 17.9947 27.5712 16.2814H31.7866C30.2037 17.8319 28.8375 19.5904 27.7252 21.509Z" fill="black"/>
<path id="Vector_4" d="M43.2149 14.157H5.81201V15.1996H43.2149V14.157Z" fill="black"/>
<path id="Vector_5" d="M43.2149 9.73645H5.81201V10.779H43.2149V9.73645Z" fill="black"/>
<path id="Vector_6" d="M7.88525 8.61787V6.45667C7.88525 6.45667 10.7974 6.50082 11.6434 7.68323V8.61542L7.88525 8.61787Z" fill="black"/>
<path id="Vector_7" d="M41.0535 8.61787V6.45667C41.0535 6.45667 38.1414 6.50082 37.2979 7.68323V8.61542L41.0535 8.61787Z" fill="black"/>
<path id="Vector_8" d="M33.4001 8.61782H15.8931C20.3163 7.88189 20.2698 5.72559 20.2698 5.72559H29.0233C29.0233 5.72559 28.9769 7.87943 33.4001 8.61782Z" fill="black"/>
<path id="Vector_9" d="M24.5243 0V0.0143683L24.5171 0.00718416L24.5243 0Z" fill="black"/>
<path id="Vector_10" d="M28.7617 4.72232H24.517V4.11395H25.495L24.517 3.1327L23.5389 4.11395H24.517V4.72232H20.2698C20.4092 1.92085 18.1523 1.53326 18.1523 1.53326C19.3969 1.22662 21.04 2.16126 21.04 2.16126L20.0815 2.12937C20.2225 2.21306 20.3516 2.31537 20.4654 2.43355C20.6989 2.69803 20.9162 2.97657 21.1158 3.26762C21.1158 3.26762 21.5168 4.0747 22.2846 3.92506C23.2822 3.7239 24.1037 2.36241 24.1037 2.36241V1.08924L22.8592 1.44004L24.5072 0.0147705L26.1625 1.44004L24.94 1.08924V2.35996C24.94 2.35996 25.7615 3.72145 26.7591 3.9226C27.5245 4.0747 27.9279 3.26762 27.9279 3.26762C28.1276 2.97657 28.3448 2.69803 28.5783 2.43355C28.6921 2.31537 28.8212 2.21306 28.9622 2.12937L28.0037 2.16126C28.0037 2.16126 29.6346 1.22662 30.8791 1.52099C30.8791 1.52099 28.6223 1.92085 28.7617 4.72232Z" fill="black"/>
<path id="Vector_11" d="M24.5169 0.00718416L24.5073 0.0143683V0L24.5169 0.00718416Z" fill="black"/>
<path id="Vector_12" d="M11.2477 11.3727V13.578H10.7146V12.3686L9.95176 13.578H9.57032L8.80745 12.3686V13.578H8.27441V11.3727H8.79522L9.76104 12.9182L10.7195 11.407L11.2477 11.3727Z" fill="black"/>
<path id="Vector_13" d="M13.4333 11.3727H12.7512L11.6655 13.5805H12.2255L12.47 13.0899H13.805L14.0642 13.5805H14.6461L13.4333 11.3727ZM12.6387 12.6753L13.0959 11.775L13.5849 12.663L12.6387 12.6753Z" fill="black"/>
<path id="Vector_14" d="M15.2625 13.4113C15.1876 13.3435 15.1284 13.26 15.0891 13.1668C15.0498 13.0735 15.0314 12.9728 15.0351 12.8716H15.5242C15.5229 12.914 15.5306 12.9562 15.5466 12.9955C15.5626 13.0348 15.5866 13.0703 15.6171 13.0997C15.6848 13.1585 15.7722 13.1892 15.8616 13.1856H16.2528C16.3375 13.1918 16.4223 13.1739 16.4973 13.1341C16.5232 13.1212 16.545 13.1012 16.5601 13.0765C16.5753 13.0518 16.5832 13.0233 16.5829 12.9943V12.8986C16.5828 12.8785 16.5783 12.8587 16.5699 12.8405C16.5615 12.8223 16.5492 12.8061 16.534 12.7931C16.4936 12.7604 16.4457 12.7385 16.3946 12.7293L15.6342 12.5968C15.4833 12.5771 15.3418 12.5122 15.2283 12.4104C15.1813 12.3686 15.1436 12.3172 15.1179 12.2597C15.0922 12.2022 15.079 12.1398 15.0792 12.0768V11.9321C15.0759 11.8471 15.0942 11.7628 15.1322 11.6868C15.1703 11.6109 15.2269 11.5459 15.2968 11.4978C15.474 11.3832 15.6828 11.3274 15.8934 11.3384H16.2455C16.4502 11.3296 16.6507 11.3978 16.8079 11.5297C16.8777 11.5904 16.9333 11.6659 16.9705 11.7508C17.0077 11.8356 17.0256 11.9277 17.023 12.0204H16.534C16.5353 11.9851 16.5289 11.9499 16.5154 11.9173C16.5019 11.8847 16.4816 11.8555 16.4558 11.8315C16.3995 11.7829 16.327 11.7574 16.2528 11.7603H15.8934C15.809 11.7552 15.7248 11.7721 15.6489 11.8094C15.6234 11.822 15.6021 11.8416 15.5874 11.8659C15.5726 11.8903 15.5651 11.9183 15.5657 11.9468V12.0351C15.566 12.0554 15.5707 12.0754 15.5796 12.0936C15.5885 12.1118 15.6013 12.1279 15.6171 12.1406C15.6552 12.1727 15.7021 12.1923 15.7516 12.197L16.5389 12.3393C16.6825 12.3624 16.8166 12.4262 16.9252 12.5233C16.971 12.5637 17.0076 12.6135 17.0325 12.6694C17.0574 12.7253 17.07 12.7859 17.0695 12.8471V13.009C17.0759 13.0937 17.0612 13.1786 17.0266 13.2562C16.992 13.3337 16.9387 13.4014 16.8714 13.453C16.693 13.5671 16.4837 13.6228 16.2724 13.6124H15.8812C15.657 13.6263 15.436 13.5544 15.2625 13.4113Z" fill="black"/>
<path id="Vector_15" d="M35.6156 13.4112C35.5406 13.3434 35.4814 13.26 35.4421 13.1667C35.4028 13.0735 35.3844 12.9727 35.3882 12.8715H35.8772C35.876 12.9139 35.8836 12.9562 35.8996 12.9954C35.9156 13.0347 35.9396 13.0702 35.9701 13.0997C36.0378 13.1584 36.1252 13.1891 36.2146 13.1855H36.6058C36.6906 13.1917 36.7753 13.1739 36.8504 13.134C36.8763 13.1211 36.898 13.1011 36.9132 13.0764C36.9283 13.0517 36.9362 13.0232 36.9359 12.9942V12.8985C36.9358 12.8784 36.9314 12.8586 36.9229 12.8404C36.9145 12.8222 36.9023 12.806 36.887 12.793C36.8467 12.7603 36.7987 12.7384 36.7477 12.7292L35.9848 12.5968C35.8347 12.5766 35.6942 12.5116 35.5813 12.4103C35.5343 12.3685 35.4967 12.3172 35.4709 12.2596C35.4452 12.2021 35.432 12.1397 35.4322 12.0767V11.932C35.4289 11.847 35.4472 11.7627 35.4852 11.6867C35.5233 11.6108 35.5799 11.5458 35.6498 11.4978C35.8277 11.3825 36.0374 11.3266 36.2489 11.3383H36.601C36.8064 11.3291 37.0079 11.3974 37.1658 11.5297C37.2356 11.5903 37.2912 11.6658 37.3284 11.7507C37.3656 11.8355 37.3836 11.9276 37.3809 12.0203H36.8919C36.8932 11.985 36.8869 11.9499 36.8734 11.9173C36.8599 11.8847 36.8395 11.8554 36.8137 11.8314C36.7567 11.7824 36.6833 11.757 36.6083 11.7602H36.2611C36.1767 11.7551 36.0925 11.772 36.0166 11.8093C35.9911 11.8219 35.9698 11.8415 35.9551 11.8659C35.9403 11.8902 35.9328 11.9182 35.9334 11.9467V12.035C35.9337 12.0553 35.9384 12.0753 35.9473 12.0935C35.9562 12.1118 35.969 12.1278 35.9848 12.1405C36.0222 12.1721 36.0682 12.1918 36.1168 12.1969L36.9066 12.3392C37.0501 12.3628 37.184 12.4266 37.2929 12.5232C37.3387 12.5636 37.3753 12.6135 37.4002 12.6693C37.4251 12.7252 37.4377 12.7858 37.4372 12.847V13.0089C37.4396 13.0946 37.4205 13.1795 37.3816 13.2558C37.3428 13.3321 37.2853 13.3974 37.2147 13.4455C37.0361 13.5593 36.8269 13.615 36.6156 13.605H36.2244C36.0045 13.6184 35.7875 13.5494 35.6156 13.4112Z" fill="black"/>
<path id="Vector_16" d="M20.7201 11.412H19.1943V13.5781H20.7005C20.7005 13.5781 21.9011 13.5781 21.8766 12.4963C21.8522 11.4144 20.7201 11.412 20.7201 11.412ZM20.7201 13.1046H19.6858V11.8781H20.7372C20.8168 11.8773 20.8957 11.8929 20.969 11.9239C21.0423 11.9549 21.1086 12.0007 21.1636 12.0584C21.2186 12.1161 21.2612 12.1845 21.2888 12.2594C21.3164 12.3343 21.3284 12.4141 21.324 12.4938C21.325 12.5731 21.3104 12.6517 21.2811 12.7253C21.2517 12.7989 21.2082 12.866 21.1531 12.9227C21.0979 12.9794 21.0321 13.0247 20.9595 13.0559C20.8869 13.0871 20.8089 13.1037 20.7299 13.1046H20.7201Z" fill="black"/>
<path id="Vector_17" d="M23.1111 11.9002V12.2436H24.4119V12.7318H23.1111V13.1046H25.0525V13.5928H22.6245V11.412H25.0525V11.9002H23.1111Z" fill="black"/>
<path id="Vector_18" d="M29.053 11.9002V12.2436H30.3538V12.7318H29.053V13.1046H30.9944V13.5928H28.5664V11.412H30.9944V11.9002H29.053Z" fill="black"/>
<path id="Vector_19" d="M38.7966 11.9002V12.2436H40.0974V12.7318H38.7966V13.1046H40.7381V13.5928H38.3101V11.412H40.7381V11.9002H38.7966Z" fill="black"/>
<path id="Vector_20" d="M26.0452 11.9002V12.2436H27.346V12.7318H26.0452V13.5781H25.5586V11.412H27.989V11.9002H26.0452Z" fill="black"/>
<path id="Vector_21" d="M31.7153 11.412V13.5928H32.2802V12.1577L33.9061 13.5781L34.4954 13.5928V11.412H33.9282V12.852L32.2606 11.412H31.7153Z" fill="black"/>
</g>
<defs>
<clipPath id="clip0_252_17893">
<rect width="49" height="42" fill="white"/>
</clipPath>
</defs>
</svg>
