<svg width="69" height="30" viewBox="0 0 69 30" fill="none" xmlns="http://www.w3.org/2000/svg">
<g id="Layer_1" clip-path="url(#clip0_252_17916)">
<path id="Vector" d="M61.5 15.119C65.6421 15.119 69 11.7685 69 7.63544C69 3.50237 65.6421 0.151855 61.5 0.151855C57.3579 0.151855 54 3.50237 54 7.63544C54 11.7685 57.3579 15.119 61.5 15.119Z" fill="#DADADA"/>
<path id="Vector_2" d="M61.5002 13.9116C64.974 13.9116 67.79 11.1018 67.79 7.63562C67.79 4.16948 64.974 1.35962 61.5002 1.35962C58.0265 1.35962 55.2104 4.16948 55.2104 7.63562C55.2104 11.1018 58.0265 13.9116 61.5002 13.9116Z" fill="#E4E4E4"/>
<path id="Vector_3" d="M61.5001 12.45C64.1643 12.45 66.324 10.295 66.324 7.63667C66.324 4.97835 64.1643 2.82336 61.5001 2.82336C58.836 2.82336 56.6763 4.97835 56.6763 7.63667C56.6763 10.295 58.836 12.45 61.5001 12.45Z" fill="#B6B6B6"/>
<path id="Vector_4" d="M61.4999 10.8491C63.2792 10.8491 64.7215 9.40992 64.7215 7.63458C64.7215 5.85924 63.2792 4.42004 61.4999 4.42004C59.7207 4.42004 58.2783 5.85924 58.2783 7.63458C58.2783 9.40992 59.7207 10.8491 61.4999 10.8491Z" fill="black"/>
<path id="Vector_5" d="M0 12.7039H13.9773V16.4116L6.61364 25.0858L6.98864 25.613H14.1989V29.8481H0V26.2764L7.44886 17.5512L6.98864 17.0069H0V12.7039Z" fill="black"/>
<path id="Vector_6" d="M15.1875 7.22791V11.2248H17.1307V29.8487H22.8068V7.22791H15.1875Z" fill="black"/>
<path id="Vector_7" d="M43.9263 12.7033V29.8135H49.7047V20.9353C49.7047 20.9353 49.7047 17.5336 52.4831 17.4146H54.7842V12.4652C54.7842 12.4652 49.8581 12.057 48.4092 16.3601V12.7033H43.9263Z" fill="black"/>
<path id="Vector_8" d="M57.1533 12.7039V16.8028H59.3522V29.8481H64.926V12.7039H57.1533Z" fill="black"/>
<path id="Vector_9" d="M25.2441 12.7039V22.9087C25.2745 24.4708 25.6902 26.0013 26.4544 27.3649C27.1542 28.4465 28.238 29.2242 29.4885 29.5419C31.1446 29.9074 32.8607 29.9074 34.5169 29.5419C35.4478 29.1758 36.3435 28.726 37.193 28.1983V29.797H41.7441V12.7889H36.0851V22.6196C36.0851 22.6196 36.085 24.5755 34.6021 25.0688C34.1136 25.2726 33.5794 25.3422 33.0548 25.2704C32.5303 25.1987 32.0346 24.9881 31.6191 24.6606C30.973 24.1512 31 23.5 30.9544 23.1979V12.7039H25.2441Z" fill="black"/>
</g>
<defs>
<clipPath id="clip0_252_17916">
<rect width="69" height="29.6962" fill="white" transform="translate(0 0.152344)"/>
</clipPath>
</defs>
</svg>
