<svg width="162" height="48" viewBox="0 0 162 48" fill="none" xmlns="http://www.w3.org/2000/svg">
<g id="Frame 51">
<g id="Group 50">
<path id="Vector" d="M41.3853 17.086C41.3853 17.086 44.5268 15.1223 44.3411 12.0513C44.1553 8.98021 42.1848 5.84634 36.2101 5.18518H17.5V29.9289H35.9613C35.9613 29.9289 45.1439 30.0512 45.1439 22.8678C45.1439 22.8678 45.6979 18.8149 41.3853 17.086ZM25.558 12.1273H34.5415C34.7583 12.1271 34.9704 12.1911 35.1507 12.3112C35.331 12.4312 35.4715 12.6019 35.5543 12.8017C35.6371 13.0014 35.6585 13.2212 35.6158 13.433C35.5731 13.6449 35.4682 13.8394 35.3144 13.9918C35.2143 14.0955 35.0943 14.1782 34.9615 14.235C34.8288 14.2918 34.6859 14.3215 34.5415 14.3223H25.558V12.1273ZM36.2134 22.5537C36.1126 22.6574 35.992 22.7401 35.8587 22.7968C35.7254 22.8536 35.5821 22.8833 35.4372 22.8843H25.558V20.6893H35.4372C35.7284 20.6893 36.0077 20.8046 36.2136 21.0098C36.4195 21.215 36.5352 21.4933 36.5352 21.7835C36.5357 21.9267 36.5074 22.0686 36.4522 22.2009C36.3969 22.3331 36.3158 22.4531 36.2134 22.5537Z" fill="black"/>
<path id="Vector_2" d="M65.0185 5.18518H55.7696L43.9663 29.9289H52.492L54.0645 26.5339L66.6706 26.6L68.18 29.9289H76.5067L65.0185 5.18518ZM63.0812 21.8298L60.2282 19.7306L57.4781 21.8232L58.3937 18.6199L55.9819 16.4248H59.0671L60.2448 13.3538L61.4258 16.4248H64.6403L62.1523 18.5405L63.0812 21.8298Z" fill="black"/>
<path id="Vector_3" d="M77.6743 29.9289V5.18518H85.8716L97.2204 18.5604V5.18518H105.351V29.9289H97.2204L85.6759 16.405V29.9289H77.6743Z" fill="black"/>
<path id="Vector_4" d="M134.027 5.18518H116.255C116.255 5.18518 107.04 5.18518 106.738 13.3438V21.8893C106.738 21.8893 106.914 29.6876 116.624 29.6876H134.04V17.5554H125.979V22.7686H117.317C117.317 22.7686 114.726 22.7686 114.726 20.4248V14.3091C114.726 14.3091 114.55 12.2166 117.198 12.2166H134.027V5.18518Z" fill="black"/>
<path id="Vector_5" d="M144.5 5.18518H136.074V19.3306H144.5V5.18518Z" fill="black"/>
<path id="Vector_6" d="M140.217 29.9289C142.544 29.9289 144.431 28.0492 144.431 25.7306C144.431 23.4119 142.544 21.5322 140.217 21.5322C137.891 21.5322 136.004 23.4119 136.004 25.7306C136.004 28.0492 137.891 29.9289 140.217 29.9289Z" fill="black"/>
<path id="Vector_7" d="M63.814 42.8115V34.5504H65.33L67.211 41.0727L68.9792 34.5504H70.336V42.8115H69.4436V36.1339L67.6655 42.8115H66.7266L64.7528 35.605V42.8115H63.814Z" fill="black"/>
<path id="Vector_8" d="M87.2451 42.8115V34.5504H88.7579L90.6388 41.0727L92.4103 34.5504H93.7638V42.8115H92.8747V36.1339L91.0933 42.8115H90.1545L88.1806 35.605V42.8115H87.2451Z" fill="black"/>
<path id="Vector_9" d="M75.0732 34.5504H74.0747V42.8115H75.0732V34.5504Z" fill="black"/>
<path id="Vector_10" d="M98.6436 34.5504H97.645V42.8115H98.6436V34.5504Z" fill="black"/>
<path id="Vector_11" d="M81.8377 34.5504H80.5672L78.3047 42.8149H79.2999L79.9169 40.1702H82.6173L83.3903 42.8149H84.2661L81.8377 34.5504ZM80.1989 39.3008L81.214 35.6876L82.2657 39.3008H80.1989Z" fill="black"/>
</g>
</g>
</svg>
