<svg width="139" height="48" viewBox="0 0 139 48" fill="none" xmlns="http://www.w3.org/2000/svg">
<g id="Frame 52">
<g id="Group 51">
<path id="Vector" d="M24.0551 7.94751H22.853V23.2595H24.0551V7.94751Z" fill="black"/>
<path id="Vector_2" d="M48.5624 29.782H47.7314V40.526H48.5624V29.782Z" fill="black"/>
<path id="Vector_3" d="M53.9009 40.526V39.7087H47.7316V40.526H53.9009Z" fill="black"/>
<path id="Vector_4" d="M58.0341 29.782H57.2031V40.526H58.0341V29.782Z" fill="black"/>
<path id="Vector_5" d="M63.3726 40.526V39.7087H57.2033V40.526H63.3726Z" fill="black"/>
<path id="Vector_6" d="M32.502 23.2622V22.0798H22.8528V23.2622H32.502Z" fill="black"/>
<path id="Vector_7" d="M107.488 7.94751H106.286V23.2595H107.488V7.94751Z" fill="black"/>
<path id="Vector_8" d="M115.935 23.2622V22.0798H106.285V23.2622H115.935Z" fill="black"/>
<path id="Vector_9" d="M115.935 16.1972V15.0149H106.285V16.1972H115.935Z" fill="black"/>
<path id="Vector_10" d="M115.932 9.13239V7.95007L106.282 7.95007V9.13239H115.932Z" fill="black"/>
<path id="Vector_11" d="M40.4355 7.94751H39.2334V23.2595H40.4355V7.94751Z" fill="black"/>
<path id="Vector_12" d="M70.604 7.94751H69.4019V23.2621H70.604V7.94751Z" fill="black"/>
<path id="Vector_13" d="M81.6462 15.6127C81.6462 19.8447 79.1021 23.27 75.9637 23.27H69.4019V22.0877H75.9637C78.5589 22.0453 80.6565 19.1623 80.6565 15.6127C80.6565 12.0631 78.5589 9.18001 75.9637 9.13768H69.4019V7.94214H75.9637C79.1021 7.94214 81.6462 11.3807 81.6462 15.6127Z" fill="black"/>
<path id="Vector_14" d="M49.4526 8.9473V23.2621H48.2505V7.63538L49.4526 8.9473Z" fill="black"/>
<path id="Vector_15" d="M61.6458 21.8787V23.6456L60.4437 22.3337L49.4526 10.3306L48.2505 9.0187V7.25183L49.4526 8.56376L60.4437 20.5668L61.6458 21.8787Z" fill="black"/>
<path id="Vector_16" d="M61.646 7.56396V23.6456L60.4438 22.3337V7.56396H61.646Z" fill="black"/>
<path id="Vector_17" d="M86.917 7.91577H88.3289L93.9253 17.6706V23.2859H92.6237V17.6997L86.917 7.91577Z" fill="black"/>
<path id="Vector_18" d="M99.635 7.91577H98.2204L92.624 17.6706V23.2859H93.9256V17.6997L99.635 7.91577Z" fill="black"/>
<path id="Vector_19" d="M72.0913 29.5281C70.9856 29.5286 69.9049 29.8516 68.9858 30.4561C68.0667 31.0607 67.3505 31.9197 66.9278 32.9245C66.505 33.9294 66.3947 35.035 66.6107 36.1015C66.8267 37.168 67.3594 38.1476 68.1415 38.9164C68.9235 39.6851 69.9197 40.2086 71.0042 40.4206C72.0887 40.6325 73.2127 40.5235 74.2342 40.1072C75.2557 39.6909 76.1287 38.9861 76.7429 38.0819C77.3572 37.1776 77.685 36.1145 77.685 35.0271C77.685 34.3047 77.5403 33.5894 77.2592 32.9221C76.978 32.2547 76.5659 31.6484 76.0465 31.1378C75.527 30.6271 74.9103 30.2221 74.2317 29.9459C73.5531 29.6697 72.8257 29.5277 72.0913 29.5281ZM72.0913 39.6876C71.1541 39.6876 70.2379 39.4142 69.4587 38.9021C68.6794 38.39 68.0721 37.6622 67.7134 36.8106C67.3548 35.959 67.261 35.0219 67.4438 34.1178C67.6266 33.2138 68.0779 32.3834 68.7406 31.7316C69.4033 31.0798 70.2477 30.6359 71.1668 30.4561C72.086 30.2763 73.0388 30.3686 73.9046 30.7213C74.7705 31.0741 75.5105 31.6714 76.0312 32.4378C76.5519 33.2042 76.8298 34.1053 76.8298 35.0271C76.8295 35.6387 76.7066 36.2444 76.4683 36.8093C76.23 37.3743 75.8808 37.8876 75.4408 38.3199C75.0008 38.7522 74.4785 39.095 73.9038 39.3287C73.3291 39.5625 72.7132 39.6826 72.0913 39.6823V39.6876Z" fill="black"/>
<path id="Vector_20" d="M39.2872 29.782H38.8327L33.6343 40.526H34.7423L36.4634 36.7992H41.5731L43.3426 40.526H44.2758L39.2872 29.782ZM36.8668 35.929L39.0532 31.2658L41.2046 35.929H36.8668Z" fill="black"/>
<path id="Vector_21" d="M103.056 29.782H102.59L97.5776 40.3752H98.6829L100.229 36.7992H105.339L107.108 40.526H108.042L103.056 29.782ZM100.635 35.929L102.822 31.2658L104.973 35.929H100.635Z" fill="black"/>
<path id="Vector_22" d="M113.724 34.7678V40.526H112.772V34.8366L108.496 29.782H109.569L113.724 34.7678Z" fill="black"/>
<path id="Vector_23" d="M112.772 34.7678V40.526H113.724V34.8366L118 29.782H116.927L112.772 34.7678Z" fill="black"/>
<path id="Vector_24" d="M79.957 29.8138H81.0489L84.5477 38.5344L88.2239 29.8138V32.1573L84.5692 40.7483L79.957 29.8138Z" fill="black"/>
<path id="Vector_25" d="M96.491 29.8138H95.3991L91.9004 38.5344L88.2241 29.8138V32.1573L91.8789 40.7483L96.491 29.8138Z" fill="black"/>
<path id="Vector_26" d="M21.7745 35.0191C21.7745 37.6827 24.2164 39.8436 27.2284 39.8436C28.115 39.8456 28.9907 39.6522 29.7913 39.2776V36.1459H27.5377V35.4185H30.5712V39.6638C30.3205 39.8069 30.0599 39.9324 29.7913 40.0394C28.9768 40.3624 28.1066 40.5276 27.2284 40.526C23.7888 40.526 21 38.0609 21 35.0191C21 31.9774 23.7888 29.5122 27.2284 29.5122C28.1066 29.5106 28.9768 29.6759 29.7913 29.9989C30.0594 30.1061 30.3199 30.2307 30.5712 30.3718V31.2183C30.3242 31.0475 30.0634 30.8971 29.7913 30.7686C28.9907 30.394 28.115 30.2006 27.2284 30.2026C24.2164 30.1946 21.7745 32.3556 21.7745 35.0191Z" fill="black"/>
</g>
</g>
</svg>
